# xmcd
#
# Track frame offsets:
#	150
#	18816
#	36741
#	58544
#	75966
#	99135
#	119755
#	140499
#	156980
#	179030
#	195500
#	210425
#	226645
#	238143
#	264354
#	280047
#	300810
#	319246
#	335924
#
# Disc length: 4714 seconds
#
# Revision: 1
# Processed by: cddbd v1.5.2PL0 Copyright (c) Steve Scherf et al.
# Submitted via: audiograbber 1.83.01
#
DISCID=01126813
DTITLE=—борник - Love Is In The Air 2 CD2
DYEAR=1900
DGENRE=
TTITLE0=Brian McKnight - 6,8,12
TTITLE1=Caught In The Act - Babe
TTITLE2=Michael Bolton - The Center Of My Heart
TTITLE3=Britney Spears - Don't Let Me Be The Last To Know
TTITLE4=Mystic Diversions - Back To The beginning
TTITLE5=Aimee Mann - Save Me
TTITLE6=Oleta Adams - Get Here
TTITLE7=Espen Lind - When Susannah Cries
TTITLE8=Boyz II Men - 4 Seasons Of Loneliness
TTITLE9=K-Ci and Jojo - All My Life
TTITLE10=Robin Beck - First Time
TTITLE11=Sara Brendel - Be with You
TTITLE12=Edison Lighthouse - Love Grows
TTITLE13=Stephanie - One Love To Give
TTITLE14=F.R. David - Words
TTITLE15=Gottard - Let It Rain
TTITLE16=Chris De Burg - Ledy In Red
TTITLE17=Haddaway - Love Makes
TTITLE18=Rednex - Wish You Were Here
EXTD=
EXTT0=
EXTT1=
EXTT2=
EXTT3=
EXTT4=
EXTT5=
EXTT6=
EXTT7=
EXTT8=
EXTT9=
EXTT10=
EXTT11=
EXTT12=
EXTT13=
EXTT14=
EXTT15=
EXTT16=
EXTT17=
EXTT18=
PLAYORDER=
